nColumns=19
nRows=40
DataType=double
version=3
OpenSimVersion=4.1
endheader
time	ground_force_1_vx	ground_force_1_vy	ground_force_1_vz	ground_force_1_px	ground_force_1_py	ground_force_1_pz	ground_force_1_mx	ground_force_1_my	ground_force_1_mz	ground_force_2_vx	ground_force_2_vy	ground_force_2_vz	ground_force_2_px	ground_force_2_py	ground_force_2_pz	ground_force_2_mx	ground_force_2_my	ground_force_2_mz
4.11	0	0	0	-0.00277484	0	-0.000666919	0	0	0	0	0	0	-0.00277502	0	-0.000666155	0	0	0
4.12	0	0	0	-0.00277484	0	-0.000666832	0	0	0	0	0	0	-0.00277501	0	-0.00066608	0	0	0
4.13	0	0	0	-0.00277483	0	-0.000666745	0	0	0	0	0	0	-0.00277501	0	-0.000666005	0	0	0
4.14	0	0	0	-0.00277483	0	-0.000666659	0	0	0	0	0	0	-0.002775	0	-0.000665931	0	0	0
4.15	0	0	0	-0.00277482	0	-0.000666573	0	0	0	0	0	0	-0.00277499	0	-0.000665857	0	0	0
4.16	0	0	0	-0.00277482	0	-0.000666488	0	0	0	0.754611	13.5624	-0.406607	-0.00277499	0	-0.000665784	0	0	0
4.17	0	0	0	-0.00277481	0	-0.000666403	0	0	0	0.56064	36.0502	-5.08117	1.07033	0	-0.320483	-0	1.31556	-0
4.18	0	0	0	-0.00277481	0	-0.000666319	0	0	0	3.79296	127.777	-13.6274	0.987986	0	-0.349446	-0	0.883658	-0
4.19	0	0	0	-0.0027748	0	-0.000666236	0	0	0	3.24106	386.173	-24.5351	1.01211	0	-0.331734	-0	0.77592	-0
4.2	0	0	0	-0.0027748	0	-0.000666153	0	0	0	-36.2008	819.493	-27.9873	1.01185	0	-0.326342	0	-0.146914	0
4.21	0	0	0	-0.00277479	0	-0.000666071	0	0	0	-123.706	1204.44	-16.9517	1.00709	0	-0.323263	0	-2.20834	0
4.22	0	0	0	-0.00277478	0	-0.000665989	0	0	0	-195.592	1314.97	-27.3587	0.997534	0	-0.32167	0	-4.39841	0
4.23	0	0	0	-0.00277478	0	-0.000665908	0	0	0	-216.535	1245.73	-85.4199	0.979775	0	-0.321465	0	-5.31316	0
4.24	0	0	0	-0.00277477	0	-0.000665828	0	0	0	-214.419	1200.01	-103.831	0.950097	0	-0.322257	0	-4.67056	0
4.25	0	0	0	-0.00277477	0	-0.000665748	0	0	0	-198.753	1238.03	-28.1337	0.910542	0	-0.323247	0	-3.6317	0
4.26	0	0	0	-0.00277476	0	-0.000665669	0	0	0	-160.036	1319.64	28.3139	0.870743	0	-0.324113	0	-3.40612	0
4.27	0	0	0	-0.00277476	0	-0.000665591	0	0	0	-105.895	1388.67	1.56043	0.83762	0	-0.325056	0	-3.93333	0
4.28	0	0	0	-0.00277475	0	-0.000665513	0	0	0	-62.2916	1416.54	-26.2818	0.810295	0	-0.326104	0	-4.26085	0
4.29	0	0	0	-0.00277475	0	-0.000665436	0	0	0	-31.6847	1406.47	-10.8831	0.78496	0	-0.327177	0	-3.81921	0
4.3	0	0	0	-0.00277474	0	-0.00066536	0	0	0	-1.40959	1366.55	3.31767	0.75867	0	-0.328217	0	-2.97742	0
4.31	0	0	0	-0.00277474	0	-0.000665285	0	0	0	31.5452	1301.21	1.09109	0.730246	0	-0.328921	0	-2.57839	0
4.32	0	0	0	-0.00277473	0	-0.00066521	0	0	0	66.6561	1217.55	-3.57491	0.69984	0	-0.328752	0	-3.12707	0
4.33	0	0	0	-0.00277473	0	-0.000665136	0	0	0	105.691	1112.84	-13.5233	0.66782	0	-0.327443	0	-4.23153	0
4.34	0	0	0	-0.00277473	0	-0.000665063	0	0	0	139.473	973.239	-26.4003	0.633575	0	-0.32532	0	-4.65572	0
4.35	0	0	0	-0.00277472	0	-0.00066499	0	0	0	155.819	786.389	-33.6031	0.594845	0	-0.323124	0	-3.15747	0
4.36	0	0	0	-0.00277472	0	-0.000664919	0	0	0	150.036	561.099	-37.9601	0.547617	0	-0.321638	-0	0.266198	-0
4.37	0	0	0	-0.00277471	0	-0.000664848	0	0	0	125.765	345.099	-41.6767	0.4856	0	-0.321219	-0	3.87899	-0
4.38	0	0	0	-0.00277471	0	-0.000664778	0	0	0	92.2729	186.093	-32.4341	0.392912	0	-0.320721	-0	5.42921	-0
4.39	0	0	0	-0.0027747	0	-0.000664709	0	0	0	55.8693	91.7331	-10.1651	0.171204	0	-0.309732	-0	4.297	-0
4.4	0	0	0	-0.0027747	0	-0.00066464	0	0	0	21.705	43.9762	0.277766	2.61459	0	-0.604647	-0	2.15925	-0
4.41	0	0	0	-0.00277469	0	-0.000664573	0	0	0	1.68598	18.9009	-3.33285	-0.00277485	0	-0.000664136	0	0	0
4.42	0	0	0	-0.00277469	0	-0.000664506	0	0	0	0	0	0	-0.00277484	0	-0.000664078	0	0	0
4.43	0	0	0	-0.00277469	0	-0.00066444	0	0	0	0	0	0	-0.00277484	0	-0.000664022	0	0	0
4.44	0	0	0	-0.00277468	0	-0.000664375	0	0	0	0	0	0	-0.00277483	0	-0.000663966	0	0	0
4.45	0	0	0	-0.00277468	0	-0.000664311	0	0	0	0	0	0	-0.00277483	0	-0.00066391	0	0	0
4.46	0	0	0	-0.00277467	0	-0.000664248	0	0	0	0	0	0	-0.00277482	0	-0.000663856	0	0	0
4.47	-1.88976	11.6821	0.114913	-0.00277467	0	-0.000664186	0	0	0	0	0	0	-0.00277482	0	-0.000663803	0	0	0
4.48	-0.0204266	28.4429	-2.68438	-0.00277466	0	-0.000664124	0	0	0	0	0	0	-0.00277481	0	-0.00066375	0	0	0
4.49	8.70011	112.43	-9.95512	0.991257	0	-0.292813	-0	1.29367	-0	0	0	0	-0.00277481	0	-0.000663698	0	0	0
4.5	21.1143	369.094	-20.2831	1.01	0	-0.296095	0	-0.57522	0	0	0	0	-0.0027748	0	-0.000663646	0	0	0
